<svg width="18" height="13" viewBox="0 0 18 13" fill="none" xmlns="http://www.w3.org/2000/svg">
<path d="M17.92 5.62409C17.8724 5.50134 17.801 5.3892 17.71 5.29409L12.71 0.294092C12.6168 0.200853 12.5061 0.126893 12.3843 0.0764322C12.2624 0.0259719 12.1319 0 12 0C11.7337 0 11.4783 0.105788 11.29 0.294092C11.1968 0.38733 11.1228 0.498021 11.0723 0.619843C11.0219 0.741665 10.9959 0.872233 10.9959 1.00409C10.9959 1.27039 11.1017 1.52579 11.29 1.71409L14.59 5.00409H1C0.734784 5.00409 0.48043 5.10945 0.292893 5.29699C0.105357 5.48452 0 5.73888 0 6.00409C0 6.26931 0.105357 6.52366 0.292893 6.7112C0.48043 6.89873 0.734784 7.00409 1 7.00409H14.59L11.29 10.2941C11.1963 10.3871 11.1219 10.4977 11.0711 10.6195C11.0203 10.7414 10.9942 10.8721 10.9942 11.0041C10.9942 11.1361 11.0203 11.2668 11.0711 11.3887C11.1219 11.5105 11.1963 11.6211 11.29 11.7141C11.383 11.8078 11.4936 11.8822 11.6154 11.933C11.7373 11.9838 11.868 12.0099 12 12.0099C12.132 12.0099 12.2627 11.9838 12.3846 11.933C12.5064 11.8822 12.617 11.8078 12.71 11.7141L17.71 6.71409C17.801 6.61899 17.8724 6.50684 17.92 6.38409C18.02 6.14063 18.02 5.86755 17.92 5.62409Z" fill="white"/>
</svg>
