<svg width="22" height="21" viewBox="0 0 22 21" fill="none" xmlns="http://www.w3.org/2000/svg">
<path d="M18.7641 1.75012H3.23581C3.06125 1.74781 2.88793 1.77834 2.72574 1.83997C2.56355 1.9016 2.41567 1.99313 2.29054 2.10932C2.16541 2.22551 2.06548 2.3641 1.99646 2.51716C1.92745 2.67022 1.8907 2.83475 1.88831 3.00137V17.9989C1.8907 18.1655 1.92745 18.33 1.99646 18.4831C2.06548 18.6361 2.16541 18.7747 2.29054 18.8909C2.41567 19.0071 2.56355 19.0986 2.72574 19.1603C2.88793 19.2219 3.06125 19.2524 3.23581 19.2501H18.7641C18.9387 19.2524 19.112 19.2219 19.2742 19.1603C19.4364 19.0986 19.5843 19.0071 19.7094 18.8909C19.8345 18.7747 19.9345 18.6361 20.0035 18.4831C20.0725 18.33 20.1092 18.1655 20.1116 17.9989V3.00137C20.1092 2.83475 20.0725 2.67022 20.0035 2.51716C19.9345 2.3641 19.8345 2.22551 19.7094 2.10932C19.5843 1.99313 19.4364 1.9016 19.2742 1.83997C19.112 1.77834 18.9387 1.74781 18.7641 1.75012ZM7.41581 16.3976H4.66581V8.52262H7.41581V16.3976ZM6.04081 7.42012C5.66155 7.42012 5.29782 7.27631 5.02964 7.02032C4.76147 6.76434 4.61081 6.41714 4.61081 6.05512C4.61081 5.6931 4.76147 5.34591 5.02964 5.08992C5.29782 4.83393 5.66155 4.69012 6.04081 4.69012C6.24219 4.66832 6.44613 4.68737 6.63927 4.74602C6.83242 4.80467 7.0104 4.9016 7.16157 5.03046C7.31275 5.15933 7.4337 5.31722 7.51652 5.49379C7.59934 5.67037 7.64215 5.86166 7.64215 6.05512C7.64215 6.24859 7.59934 6.43987 7.51652 6.61645C7.4337 6.79303 7.31275 6.95092 7.16157 7.07978C7.0104 7.20864 6.83242 7.30557 6.63927 7.36422C6.44613 7.42288 6.24219 7.44192 6.04081 7.42012ZM17.3341 16.3976H14.5841V12.1714C14.5841 11.1126 14.19 10.4214 13.1908 10.4214C12.8816 10.4235 12.5805 10.5161 12.3281 10.6866C12.0757 10.8572 11.8841 11.0975 11.7791 11.3751C11.7074 11.5808 11.6763 11.7974 11.6875 12.0139V16.3889H8.93747C8.93747 16.3889 8.93747 9.23137 8.93747 8.51387H11.6875V9.62512C11.9373 9.21134 12.3006 8.87045 12.7384 8.63917C13.1761 8.4079 13.6717 8.29499 14.1716 8.31262C16.005 8.31262 17.3341 9.44137 17.3341 11.8651V16.3976Z" fill="white"/>
</svg>
